<svg xmlns="http://www.w3.org/2000/svg" style="display:none"><symbol id="linux-logo" viewBox="53.13 -931.25 893.75 893.75"><path d="M894.531-100.586Q890.625-97.656 885.742-95.703Q880.859-93.750 875-93.750Q867.188-93.750 860.840-96.680Q854.492-99.609 850.586-105.469Q848.633-108.398 828.125-139.648Q806.641-170.898 782.715-231.934Q758.789-292.969 738.281-383.789Q718.750-473.633 718.750-593.750Q718.750-638.672 701.172-678.711Q684.570-718.750 654.785-748.535Q625-778.320 584.961-794.922Q544.922-812.500 500-812.500Q455.078-812.500 415.039-794.922Q375-778.320 345.215-748.535Q315.430-718.750 298.828-678.711Q281.250-638.672 281.250-593.750Q281.250-473.633 261.719-383.789Q241.211-292.969 217.285-231.934Q193.359-170.898 171.875-139.648Q151.367-108.398 149.414-105.469Q145.508-99.609 139.160-96.680Q132.813-93.750 125-93.750Q112.305-93.750 103.027-103.027Q93.750-112.305 93.750-125Q93.750-130.859 95.703-135.742Q97.656-140.625 100.586-144.531Q100.586-145.508 119.141-173.340Q137.695-201.172 159.180-256.836Q169.922-282.227 180.664-316.406Q190.430-350.586 199.219-392.578Q208.008-434.570 212.891-485.352Q218.750-536.133 218.750-593.750Q218.750-652.344 241.211-703.125Q262.695-754.883 300.781-792.969Q338.867-831.055 390.625-852.539Q441.406-875 500-875Q558.594-875 609.375-852.539Q661.133-831.055 699.219-792.969Q737.305-754.883 758.789-703.125Q781.250-652.344 781.250-593.750Q781.250-536.133 787.109-485.352Q791.992-434.570 800.781-392.578Q809.570-350.586 819.336-316.406Q830.078-282.227 840.820-256.836Q862.305-201.172 880.859-172.852Q899.414-144.531 899.414-144.531Q902.344-140.625 904.297-135.742Q906.250-130.859 906.250-125Q906.250-117.187 903.320-110.840Q900.391-104.492 894.531-100.586M390.625-593.750Q371.094-593.750 357.422-580.078Q343.750-566.406 343.750-546.875Q343.750-527.344 357.422-513.672Q371.094-500 390.625-500Q410.156-500 423.828-513.672Q437.500-527.344 437.500-546.875Q437.500-566.406 423.828-580.078Q410.156-593.750 390.625-593.750M656.250-546.875Q656.250-566.406 642.578-580.078Q628.906-593.750 609.375-593.750Q589.844-593.750 576.172-580.078Q562.500-566.406 562.500-546.875Q562.500-527.344 576.172-513.672Q589.844-500 609.375-500Q628.906-500 642.578-513.672Q656.250-527.344 656.250-546.875M500-378.906L388.672-434.570Q385.742-435.547 382.324-436.523Q378.906-437.500 375.977-437.500Q362.305-437.500 353.516-428.223Q344.727-418.945 344.727-406.250Q344.727-397.461 349.121-390.137Q353.516-382.812 361.328-377.930L486.328-315.430Q489.258-314.453 492.676-313.477Q496.094-312.500 500-312.500Q503.906-312.500 507.324-313.477Q510.742-314.453 513.672-315.430L638.672-377.930Q646.484-381.836 651.367-389.648Q656.250-397.461 656.250-406.250Q656.250-418.945 646.973-428.223Q637.695-437.500 625-437.500Q621.094-437.500 617.676-436.523Q614.258-435.547 610.352-434.570L611.328-434.570L500-378.906M500-250Q440.430-250 392.090-219.727Q343.750-189.453 317.383-141.602L316.406-140.625Q314.453-136.719 313.477-132.812Q312.500-128.906 312.500-125Q312.500-112.305 321.777-103.027Q331.055-93.750 343.750-93.750Q352.539-93.750 359.863-98.145Q367.188-102.539 371.094-109.375Q389.648-144.531 423.828-166.016Q458.008-187.500 500-187.500Q541.992-187.500 576.172-166.016Q610.352-144.531 628.906-110.352L628.906-109.375Q632.813-102.539 640.137-98.145Q647.461-93.750 656.250-93.750Q668.945-93.750 678.223-103.027Q687.500-112.305 687.500-125Q687.500-128.906 686.523-132.812Q685.547-136.719 683.594-140.625Q656.250-189.453 607.910-219.727Q559.570-250 500-250" fill="currentColor"/></symbol></svg>